<svg xmlns="http://www.w3.org/2000/svg" version="1" width="1952" height="1952" viewBox="0 0 1464 1464"><path d="M728.245 280.63c-4.3 5.3-6 8.9-7.4 15.8-2 9.5 0 22.5 5.6 36.7l2.7 6.7-4.5 7.5-4.4 7.6-5.5-3.8-5.4-3.8-1.2-8.8c-1.5-10.6-5.1-17.8-10.6-21.4-4.9-3.3-6.2-2.1-6.1 5.6.1 7.1 2.8 12.7 9.7 19.9l5 5.4-1.2 8c-1.9 12.7-1 11.8-15.7 15.5-55.7 14-101.2 51.1-125.9 102.6-6.4 13.3-12.7 31.8-15.1 44.5-1.7 9.1-1.8 9.1-5.3 10.2-4.5 1.3-17.8 4.1-19.6 4.1-.8 0-3.5-1.9-6.2-4.2-8.5-7.3-18-10.3-26-8.2-3 .8-2.9 2.5.3 6.4 4.6 5.4 14.8 9 25.9 9 3.9 0 4.5.4 8.3 5.2 2.5 3.2 3.7 5.7 3.2 6.3-.5.6-3.7 2.6-7.2 4.4l-6.4 3.4-6.6-2.6c-11-4.4-18.7-6.1-28.4-6.1-8.1 0-9.7.4-15.5 3.1-3.5 1.7-7.7 4.2-9.3 5.5l-2.9 2.4 4.1 3.2c12.8 10.2 30.1 10.8 52.4 1.8l6.2-2.5 7.1 3.8c3.8 2.1 7.1 4.5 7.3 5.3.2.8-1.5 3.8-3.7 6.5l-3.9 5-7.4.6c-8.2.6-13 2.3-17.7 6.3-3.1 2.6-6.7 8.2-5.8 9 .2.3 2.7.7 5.4 1.1 6.7.7 14.3-2.7 21.8-9.8l5.5-5.2 11.1 1.8c12.8 2.1 11.4.5 15.4 17.5 16.4 69.7 74.2 125.8 144.9 140.8l8.1 1.7 1.2 7c2.1 12.1 1.9 13.1-3.6 19.1-6.5 7.1-9.5 13.5-9.5 20.1 0 6.6 1.2 8 5 6 6.2-3.2 10.1-10.6 11.6-22.3l1.2-8.4 5.3-3.7c3.2-2.2 5.7-3.3 6.2-2.7.5.5 2.6 3.9 4.6 7.6l3.7 6.8-2.6 6.3c-3.1 7.8-5.4 16.5-6.2 23.3-1.3 10.4 3 24.7 9.1 30.4l2.2 2.1 2.8-3.3c10.1-11.9 11-29.8 2.6-51.5l-3.1-7.7 3.6-6.6c2-3.6 3.9-6.8 4.3-7.2.3-.4 3.2 1.3 6.4 3.7l5.7 4.5v6.8c0 12 4.1 21.1 11 24.7l2.8 1.4 1.1-4.4c2-8-.7-15.2-10.1-26.8l-2.7-3.3 2-9.9c1.1-5.4 2.2-10.2 2.4-10.6.3-.4 2.6-1 5.2-1.3 9-1.3 25.2-5.5 35-9.2 31-11.5 57.1-29.6 78.6-54.4 21.3-24.6 35.8-53.7 42.7-85.5 1.1-5.4 2.2-10.1 2.4-10.2.1-.2 3.9-.8 8.4-1.5l8.2-1.1 5.5 5.2c7.4 7 15.1 10.5 21.6 9.9 2.7-.3 5.3-.8 5.6-1.2 1.3-1.2-3.1-7.8-6.8-10.3-4.9-3.3-12.1-5.3-18.5-5.3-4.9 0-5.4-.3-8.2-3.8-1.6-2-3.5-4.8-4.2-6.1-1.4-2.7-1.8-2.3 7.5-7.6l6.1-3.4 7.7 2.9c19.8 7.8 35.5 7.9 47.2.5 8-5.1 8.2-5.7 3.5-9.5-11.7-9.3-28.2-10-48.9-2.3l-9.5 3.5-5.3-2.8c-10-5.4-9.8-5.1-5.2-11l3.9-5.1 8.6-.7c10.2-.8 17.2-3.5 21.4-8.3 5-5.6 3.6-7.3-6.1-7.3-5.5 0-12.9 3.5-19.4 9.2l-4.6 4.1-8.7-1.7c-4.8-1-9-2-9.4-2.4-.4-.4-1.6-5.4-2.8-11.2-8.4-41.9-32.4-81.6-66-109-24.2-19.8-57-35.1-86-40-3.6-.6-7.2-1.3-8.1-1.6-1.4-.4-3-5.9-5.4-18.8-.2-1.1 1.4-4.1 4.1-7.4 5.5-6.7 7-9.6 8.4-15.7 1.1-4.7-.1-12.5-1.9-12.5-2.3 0-7.8 5.1-10 9.3-1.8 3.7-2.6 7-3 14l-.6 9.1-5.4 4.4c-2.9 2.4-5.7 4-6.1 3.5-.5-.4-2.4-3.7-4.4-7.3l-3.6-6.6 3.1-7.7c8.4-21.8 7.5-39.6-2.7-51.5l-2.9-3.4zm6.6 8.3c5.5 10.7 4.7 23.8-2.6 43-.8 2.2-2.9-2.1-5.4-11.1-2.7-10-2.7-23.7.1-29.8 3.7-8.2 4.6-8.5 7.9-2.1zm32 32.1c0 5.7-4.2 14.9-8.7 19.1l-2.6 2.3.6-7.2c.3-3.9 1.3-8.6 2.2-10.5 1.9-3.6 6.4-8.8 7.7-8.8.4 0 .8 2.3.8 5.1zm-66.5 2.4c3.2 4.1 5.5 11.3 5.5 16.9l-.1 4.1-3.9-4.5c-5.3-6-8-12-8-17.5 0-4.2.1-4.5 2-3.5 1 .6 3.1 2.6 4.5 4.5zm53 51c10.4.8 25.4 3.8 37.4 7.7 55.5 17.7 100.3 62.3 118.5 118 6.5 19.8 8.1 30.5 8.1 55.3 0 23.6-.7 29.4-5.6 48.3-8.1 30.9-24 58.3-47.4 81.7-28.9 28.9-63.1 46.1-104 52.1-15.3 2.3-44.6 1.5-59.9-1.6-72.8-14.5-129.9-71.2-144.5-143.5-19.9-98.2 44-194.7 142.2-215.2 18.5-3.8 31.6-4.5 55.2-2.8zm-246.9 150c2.7 1.3 6.5 3.8 8.4 5.4l3.5 3-5.1.1c-2.8 0-7.3-.7-10.1-1.5-5.4-1.6-11.9-6.7-10.8-8.5 1.2-1.9 9-1.1 14.1 1.5zm465.9-1.4c1 1.4-2.3 4.7-7 7.2-3.7 1.9-18.5 3.8-18.5 2.4 0-1.1 10-7.8 13.7-9.2 4.6-1.6 10.9-1.9 11.8-.4zm-426.7 10.6c-.2 2.1-1.9 3.8-6.7 7.2l-6.4 4.5-3.8-4.5c-2.1-2.4-3.9-4.7-3.9-5 0-.5 16.1-4.5 19.3-4.8 1.4-.1 1.8.5 1.5 2.6zm-48.9 19.3c4.1 1.2 8.6 2.7 10 3.5l2.6 1.4-3.5 1.4c-7.8 3.3-16.7 5.1-25.5 5.1-7.8 0-9.8-.4-14.7-2.8-6.1-2.9-6.7-3.6-4.4-5.6 6.3-5.1 22.6-6.5 35.5-3zm502.6 1c2.7 1.4 5.1 3 5.3 3.7.5 1.6-9.5 6.1-15.4 6.9-2.8.3-8.2.1-12-.5-7.1-1.1-19.2-4.6-20.7-6.1-.5-.4 2.7-1.9 7-3.3 11-3.6 10.8-3.6 21.3-3.4 7.9.2 10.3.6 14.5 2.7zm-483.5 33.1c-7.1 6.5-15.7 9.9-20.3 8-1.7-.6-1.7-.8.3-3.4 3.7-4.7 12.9-8.4 21.5-8.5l3-.1zm445.3-.9c5.8 2.5 10.7 7.7 8.4 9-3 1.6-11.5-1.2-17.7-5.9-3.3-2.4-6.3-4.9-6.6-5.5-1.1-1.7 10.4.1 15.9 2.4zm-255.7 189.4c-.3 3-1.3 7.2-2.2 9.2-1.5 3.7-7 10.2-8.6 10.2-1.6 0-.8-9.2 1.3-13.3 1.8-3.7 8.5-11.7 9.7-11.7.3 0 .2 2.5-.2 5.6zm59 6.9c2.4 5.1 3.4 14.5 1.4 14.5-1.6 0-4.8-3.6-7-8-1.3-2.6-2.3-6.9-2.6-11.3l-.6-7.2 3.2 3.5c1.7 1.9 4.2 5.7 5.6 8.5zm-29.2 7.5c3.1 9.7 4.1 19.1 2.6 25.5-1.4 6.5-4.9 13.7-6.4 13.3-.6-.2-2.3-2.8-3.8-5.8-2.4-4.7-2.8-6.5-2.8-14.3 0-8.7 1.6-17.1 4.7-24.9 1.9-4.8 2.4-4.2 5.7 6.2z"/><path d="M709.745 386.43c-37.4 6.1-70.5 23.1-96.6 49.6-23.9 24.3-38.6 51.8-46.5 86.9-2 9.3-2.3 13-2.3 33 0 24.3 1.3 33.6 7.1 52.3 22.1 70.2 89.3 119.6 162.9 119.7 60.8.1 115.4-30.6 147.8-83 35.3-57.1 32.5-132.3-7.1-188-8.6-12.2-28-31.6-40.2-40.3-18.2-12.9-43.3-23.9-65.8-28.8-12.7-2.7-46.3-3.5-59.3-1.4zm41.2 1.6c20.4 2 36.2 6.2 53.4 14.2 43.3 19.9 75.4 55.1 90.8 99.4 18.6 53.3 8.4 113.7-26.8 158.8-7 8.9-21.9 23.7-31 30.6-13.8 10.6-32.5 20.3-49.5 25.9-82.3 27.1-171.2-12.5-207-91.9-28.7-63.7-14.9-138.3 35-188.1 35.9-36 85.7-54 135.1-48.9z"/><path d="M725.545 437.33c-10.8 18.8-14.3 31.6-13.4 48.6.3 5.8 1.3 13.2 2.2 16.5 1.9 6.8 8.6 21.6 13.3 29l3.2 5v-53.8c0-29.5-.1-53.7-.2-53.7-.2 0-2.5 3.8-5.1 8.4zM735.845 482.43c0 28.9.2 52.5.4 52.5.8 0 9.4-15.5 11.9-21.5 10.5-25 8.3-49.8-6.8-75.4-2.6-4.5-4.9-8.1-5.1-8.1-.2 0-.4 23.6-.4 52.5zM681.845 502.43c20.6 20.6 37.5 37.3 37.7 37.1.5-.5-4.7-18.6-7.1-24.5-8-19.7-22.5-34.2-42.7-42.7-6.8-2.9-21.8-7.4-24.6-7.4-.4 0 16.1 16.9 36.7 37.5zM810.345 467.53c-4.9 1.3-13.7 4.8-19.5 7.6-9.1 4.5-11.7 6.4-19.5 14.2-7.1 7.2-10 11-13.7 18.1-4.4 8.4-11.4 29.2-10.6 31.5.1.5 17.2-15.9 37.8-36.5 20.6-20.6 36.8-37.5 36-37.4-.8 0-5.5 1.1-10.5 2.5zM787.345 506.03c-41.9 42-40.1 39.3-22.6 34.2 4.7-1.3 12.3-4.4 17-6.8 16.1-8.4 26.1-18.6 34.1-35 4.3-8.7 10.9-29 9.8-30-.2-.3-17.5 16.7-38.3 37.6zM640.845 469.43c0 3 5.7 21 8.6 27.3 8.5 18.5 22.8 32.2 41.5 39.8 5.9 2.4 24 7.6 24.5 7.1.2-.2-16.5-17.1-37.1-37.7s-37.5-37-37.5-36.5zM642.345 537.63c-8.9 1.9-18.8 6-29.5 12.3l-8.5 5h108l-6-3.7c-22.4-13.6-43.3-18.1-64-13.6zM792.845 537.33c-10.7 2.5-23.4 8-34.5 15l-4 2.5 53.4.1c31.7 0 53.1-.4 52.6-.9-3.2-3-20.5-11.6-28.5-14.3-8-2.6-11.4-3.1-21.5-3.4-7.5-.2-14.1.2-17.5 1zM606.445 560.83c.5.5 4.8 3.1 9.6 5.8 24.3 13.9 49.1 15.8 73.3 5.6 6-2.5 21.5-11.1 21.5-11.9 0-.2-23.7-.4-52.7-.4-31.2 0-52.3.4-51.7.9zM762.845 564.93c28 16.5 53.5 18.1 80.5 5.2 4.4-2.1 10.3-5.3 13-7l5-3.2h-107zM704.345 573.53c-4.9 1.3-13.7 4.7-19.5 7.6-9 4.5-11.8 6.5-19.5 14.3-7.8 7.7-9.8 10.5-14.3 19.5s-11.1 29.4-10 30.6c.2.2 17.2-16.5 37.8-37.1 20.6-20.6 36.8-37.5 36-37.4-.8 0-5.5 1.1-10.5 2.5zM787.845 608.43c20.6 20.6 37.5 37.3 37.7 37.1.5-.5-4.7-18.6-7.1-24.5-9.8-24.1-28.9-40.1-56.8-47.6-5.1-1.4-9.7-2.5-10.3-2.5-.5 0 15.9 16.9 36.5 37.5zM681.845 612.23c-20.6 20.9-36.6 37.7-35.5 37.4 1.1-.3 5.6-1.5 10-2.7 10.5-2.8 26.6-10.7 33.5-16.4 12.6-10.5 22.7-27.3 27.6-45.9 1.4-5.5 2.4-10 2.2-10.1-.2-.1-17.2 16.9-37.8 37.7zM746.845 575.43c0 .6 1.1 5.2 2.5 10.3 7.5 27.9 23.5 47 47.6 56.8 5.9 2.4 24 7.6 24.5 7.1.2-.2-16.5-17.1-37.1-37.7s-37.5-37-37.5-36.5zM725.145 587.63c-10.3 18-13.8 30.6-13 47.8.8 15.8 5 28.4 15.1 45l3.6 6v-53.8c0-29.5-.1-53.7-.3-53.7-.2 0-2.6 3.9-5.4 8.7zM735.845 631.93v53.5l3.2-5c20.7-32.9 20.8-62.2.4-96.1l-3.6-5.9zM43.245 774.83c-11.3 5.2-13.6 19.2-4.5 27.4 7.5 6.8 16 6.3 23.2-1.4l4.7-4.9h211.8c168.3 0 212.4-.3 214.4-1.3 1.6-.8 2.6-2.3 2.8-4 .7-6.1 17.7-5.7-215.7-5.7l-213.6-.1-2.7-3.9c-3.5-5-6.4-6.9-11.9-7.5-3.1-.4-5.6 0-8.5 1.4zM1411.845 775.13c-2.6 1.3-5.5 3.9-6.9 6l-2.4 3.8h-213.7c-233.5 0-216.5-.4-215.8 5.7.2 1.7 1.2 3.2 2.8 4 2 1 46.3 1.3 215.2 1.3 209.5 0 212.7 0 213.3 1.9 1 3.1 7.1 7.9 11 8.7 6 1.1 10.6-.4 15.1-5 6.7-6.7 7.2-15.4 1.1-22.3-5.7-6.5-12.2-7.9-19.7-4.1zM257.345 875.83c-9.1 2.4-18.6 10.9-20.6 18.5-.6 2.2-.9 7.2-.7 11.1.7 13.7 7.4 21.7 27.4 32.5 19.5 10.6 24.2 16.5 23.2 29.5-1.3 15-12.7 24.5-28.2 23.3-3.4-.3-7.7-1.3-9.6-2.3-4.8-2.5-12.4-9.9-16.2-15.8l-3.3-5.2-.3 10.5-.3 10.5 3.3 2.8c11.9 10.2 32.5 12.8 47.2 5.9 8-3.7 16-11 19.3-17.5 4.5-9 4.6-24.3.2-33-5-9.7-10-13.8-30.2-24.7-12.7-6.8-17.2-10.9-18.3-16.6-1.3-7.1 3.6-16.2 10.3-19 4.2-1.8 11.7-1.8 15.1 0 3.3 1.7 7.3 5.9 10.1 10.6l2.1 3.5-.2-9.5-.3-9.4-5.8-3c-4.6-2.4-7.2-3-13.5-3.2-4.2-.2-9 0-10.7.5zM364.845 876.53c-21.9 4.7-40.7 24.2-45.5 47.1-4.9 23.1 1.6 44.9 18.1 60.9 7.1 6.9 19.3 13.5 28.2 15.3 28 5.7 56.6-8.9 68.6-35 4.3-9.3 5.6-15.7 5.6-26.8 0-18-6-32.2-18.9-45.2-15.1-15.1-34.9-20.9-56.1-16.3zm28.4 11.2c10.5 4.7 20.7 16.4 25.4 29.1 3.3 8.9 4.2 26.5 1.8 36.1-3.8 15.2-13.5 28.4-25 34-16.3 8-36.2 3.3-47.4-11.3-8.9-11.5-12.6-22.9-12.5-38.2.2-24.4 13.2-44.7 32.8-51.2 6-1.9 18.9-1.2 24.9 1.5zM1008.745 876.23c-5.3 1.5-9.4 4.3-13.9 9.4-4.6 5.2-6 9.2-6 17.1 0 15.3 6.5 23.7 27.5 35.3 7.2 3.9 14.5 8.5 16.4 10.3 12.8 11.9 7.2 35.4-9.9 41.1-6.6 2.2-15.9 1.6-21.6-1.3-5-2.5-11.4-8.9-15.7-15.5l-3.2-5-.3 10.3c-.3 12.3.2 13.1 11.5 18.7 6.1 3 8.5 3.6 16.1 4.1 15.3.8 27.1-3.6 36.2-13.5 7-7.7 9.3-14.3 8.8-25.8-.8-17.4-7.6-25.8-30.3-37.9-7.2-3.7-14.5-8.2-16.2-9.9-11-10.4-2.9-28.7 12.6-28.7 7.5 0 12.1 2.9 17.3 11l2.9 4.5-.3-9.5-.3-9.4-5.8-3c-4.6-2.3-7.3-3-13.5-3.3-4.3-.1-9.7.3-12.3 1zM515.845 883.03c0 5.9.1 6.1 2.3 5.4 1.2-.3 8.8-.9 16.9-1.2l14.7-.6.6 2.6c.9 3.2-.1 102-1 106.9l-.7 3.8h21.4l-.7-2.8c-.5-1.5-1-27-1.2-56.6l-.4-53.9 15.3.6c8.4.3 16.3.9 17.6 1.3 2.1.6 2.2.4 2.2-5.5v-6.1h-87zM619.545 886.13c1 12 1 91.3 0 104l-.7 9.8h10.6c9.4 0 10.5-.2 10-1.6-1.7-4.3-2.6-16.7-2.6-35.2v-20.2h63.2l-.5 25.2c-.3 13.9-.9 26.8-1.2 28.6l-.7 3.2h10.7c10.6 0 10.7 0 10.1-2.3-.3-1.2-1.1-6.3-1.7-11.2-1.4-11.4-.7-100.3.8-105.8l1.1-3.7h-21l.7 3.2c.4 1.8.9 14.4 1.2 28l.5 24.8h-63.4l.5-24.8c.2-13.6.9-26.2 1.5-28l1.1-3.2h-21zM786.445 885.63c-3.6 11.3-43.5 97.7-49.3 106.6-2.3 3.7-4.3 7-4.3 7.3 0 .2 3.9.3 8.6.2l8.7-.3 3.6-10.7c2.1-5.8 7.3-18.5 11.7-28.2l7.9-17.6h41.1l10.2 21.9c5.6 12 11 24.9 11.9 28.5l1.8 6.6h11.2c6.2 0 11.3-.2 11.3-.5s-1.7-3.1-3.9-6.3c-2.1-3.1-5.2-8.4-6.9-11.7-7.7-15.5-40.4-88-43-95.5l-3-8.5-7.4-.3-7.4-.3zm15.8 28.9c4.2 9.4 7.6 17.6 7.6 18.3 0 .8-4.7 1.1-16.1 1.1-12.5 0-16-.3-15.6-1.3 4.5-10.4 14.9-34.3 15.3-34.9.8-1.2.2-2.5 8.8 16.8zM876.545 886.13c1 12 1 91.3 0 104l-.7 9.8h10.6c9.6 0 10.6-.2 10-1.7-.4-1-1.2-5.1-1.7-9.3-1.4-10.4-.7-104.3.8-108.8l1.2-3.2h-21zM1076.645 880.63c.4 2.1.7 28.1.7 57.8 0 29.7-.3 55.7-.7 57.7l-.7 3.8h21.1l-.7-3.3c-.4-1.7-.9-13-1.2-25l-.5-21.7h7.9c9.3 0 19.5-2 25.4-5 6.9-3.6 14.3-11.3 17.4-18.2 2.3-5 2.8-7.6 2.8-14 0-6.8-.5-8.7-3.2-14.3-3.3-6.7-9.7-13.2-16.3-16.6-7.7-3.9-14.4-4.9-33.9-4.9h-18.8zm39.2 8.4c9 4.1 13.9 11.2 14.8 21.6.5 7.2-1.5 14.7-5.5 19.9-3.9 5.2-11.5 8.4-21.6 9.1l-8.7.6v-25.1c0-13.8.3-25.7.6-26.6 1-2.5 14.6-2.2 20.4.5zM1211.045 886.23c-4.2 12.5-44.8 99.9-50 107.6l-4.1 6.2 9-.3 9-.3 3.4-10.2c1.9-5.6 7.1-18.3 11.6-28.2l8.3-18.1h41.1l9.8 21.2c5.4 11.6 10.8 24.4 11.9 28.5l2.2 7.3h11.3c11 0 12.8-.5 9.9-2.9-3.2-2.7-10.2-16.5-26.6-52.1-21.5-46.7-23.7-51.8-26.5-60.5l-2.3-7-7.4-.3-7.4-.3zm16.2 29.1c4.2 9.2 7.6 17.2 7.6 17.7s-7.2.9-16.1.9c-12.5 0-16-.3-15.6-1.3 4.3-11.3 15.3-35.5 15.8-34.9.4.4 4.2 8.3 8.3 17.6zM41.845 1059.23c-5 2.6-9 9-9 14.1.1 4.3 3.2 10.8 6.5 13.4 8.1 6.4 20.4 4 25-4.9l1.6-2.9h1336.6l2.4 3.7c8.7 13.3 29.2 8.3 30.6-7.5 1.5-17.3-21-25.1-30.2-10.5l-2 3.2-668.5.1h-668.5l-2.9-3.6c-6-7.6-13.6-9.4-21.6-5.1z"/></svg>